<svg width="16" height="16" viewBox="0 0 16 16" fill="none" xmlns="http://www.w3.org/2000/svg">
<path fill-rule="evenodd" clip-rule="evenodd" d="M12.0009 7.99966C12.0009 8.13226 11.9482 8.25944 11.8544 8.35321C11.7607 8.44698 11.6335 8.49966 11.5009 8.49966H5.70789L7.85489 10.6457C7.90138 10.6921 7.93826 10.7473 7.96342 10.8081C7.98858 10.8688 8.00152 10.9339 8.00152 10.9997C8.00152 11.0654 7.98858 11.1305 7.96342 11.1912C7.93826 11.252 7.90138 11.3072 7.85489 11.3537C7.80841 11.4001 7.75322 11.437 7.69248 11.4622C7.63174 11.4873 7.56664 11.5003 7.50089 11.5003C7.43515 11.5003 7.37005 11.4873 7.30931 11.4622C7.24857 11.437 7.19338 11.4001 7.14689 11.3537L4.14689 8.35366C4.10033 8.30721 4.06339 8.25203 4.03818 8.19129C4.01297 8.13054 4 8.06542 4 7.99966C4 7.93389 4.01297 7.86877 4.03818 7.80802C4.06339 7.74728 4.10033 7.6921 4.14689 7.64566L7.14689 4.64566C7.24078 4.55177 7.36812 4.49902 7.50089 4.49902C7.63367 4.49902 7.76101 4.55177 7.85489 4.64566C7.94878 4.73954 8.00152 4.86688 8.00152 4.99966C8.00152 5.13243 7.94878 5.25977 7.85489 5.35366L5.70789 7.49966H11.5009C11.6335 7.49966 11.7607 7.55233 11.8544 7.6461C11.9482 7.73987 12.0009 7.86705 12.0009 7.99966Z" fill="#134965"/>
</svg>
