<svg width="32" height="32" viewBox="0 0 32 32" fill="none" xmlns="http://www.w3.org/2000/svg">
<path d="M15.9994 2.66699C8.64735 2.66699 2.66602 7.45233 2.66602 13.3337C2.66602 17.211 5.19668 20.6883 9.33268 22.579V29.3337L16.4527 23.9937C23.5954 23.803 29.3327 19.0937 29.3327 13.3337C29.3327 7.45233 23.3514 2.66699 15.9994 2.66699ZM15.9994 21.3337H15.5554L11.9993 24.0003V20.7777L11.1447 20.4483C7.55935 19.0683 5.33268 16.3417 5.33268 13.3337C5.33268 8.92166 10.118 5.33366 15.9994 5.33366C21.8807 5.33366 26.666 8.92166 26.666 13.3337C26.666 17.7457 21.8807 21.3337 15.9994 21.3337Z" fill="white"/>
</svg>
