<svg width="32" height="32" viewBox="0 0 32 32" fill="none" xmlns="http://www.w3.org/2000/svg">
<path fill-rule="evenodd" clip-rule="evenodd" d="M21.3346 11.9993C21.3346 13.4138 20.7727 14.7704 19.7725 15.7706C18.7723 16.7708 17.4158 17.3327 16.0013 17.3327C14.5868 17.3327 13.2303 16.7708 12.2301 15.7706C11.2299 14.7704 10.668 13.4138 10.668 11.9993C10.668 10.5849 11.2299 9.22831 12.2301 8.22811C13.2303 7.22792 14.5868 6.66602 16.0013 6.66602C17.4158 6.66602 18.7723 7.22792 19.7725 8.22811C20.7727 9.22831 21.3346 10.5849 21.3346 11.9993ZM18.668 11.9993C18.668 12.7066 18.387 13.3849 17.8869 13.885C17.3868 14.3851 16.7085 14.666 16.0013 14.666C15.2941 14.666 14.6158 14.3851 14.1157 13.885C13.6156 13.3849 13.3346 12.7066 13.3346 11.9993C13.3346 11.2921 13.6156 10.6138 14.1157 10.1137C14.6158 9.61363 15.2941 9.33268 16.0013 9.33268C16.7085 9.33268 17.3868 9.61363 17.8869 10.1137C18.387 10.6138 18.668 11.2921 18.668 11.9993Z" fill="white"/>
<path fill-rule="evenodd" clip-rule="evenodd" d="M16.0007 1.33301C7.90065 1.33301 1.33398 7.89967 1.33398 15.9997C1.33398 24.0997 7.90065 30.6663 16.0007 30.6663C24.1006 30.6663 30.6673 24.0997 30.6673 15.9997C30.6673 7.89967 24.1006 1.33301 16.0007 1.33301ZM4.00065 15.9997C4.00065 18.7863 4.95132 21.3517 6.54465 23.389C7.66363 21.9195 9.10718 20.7287 10.7626 19.9094C12.4179 19.0902 14.2403 18.6647 16.0873 18.6663C17.9104 18.6646 19.7099 19.079 21.3486 19.8781C22.9872 20.6771 24.4219 21.8396 25.5433 23.277C26.6986 21.7618 27.4764 19.9933 27.8125 18.1178C28.1486 16.2423 28.0332 14.3137 27.476 12.4917C26.9187 10.6696 25.9356 9.0064 24.608 7.63972C23.2803 6.27304 21.6463 5.24215 19.8412 4.63235C18.036 4.02255 16.1116 3.85137 14.2271 4.13297C12.3427 4.41457 10.5524 5.14086 9.00434 6.25175C7.45631 7.36263 6.19507 8.82617 5.32496 10.5213C4.45485 12.2164 4.00089 14.0943 4.00065 15.9997ZM16.0007 27.9997C13.2459 28.0038 10.5743 27.0561 8.43798 25.317C9.29789 24.086 10.4424 23.0809 11.7742 22.3873C13.106 21.6936 14.5857 21.3319 16.0873 21.333C17.5702 21.3318 19.032 21.6844 20.3512 22.3616C21.6705 23.0387 22.8091 24.0208 23.6726 25.2263C21.5197 27.0219 18.8041 28.0036 16.0007 27.9997Z" fill="white"/>
</svg>
