<svg width="32" height="32" viewBox="0 0 32 32" fill="none" xmlns="http://www.w3.org/2000/svg">
<path d="M14.9386 8.46066L15.9992 9.52132L17.0599 8.46066L18.2599 7.26066C19.3818 6.13875 20.9016 5.5 22.4992 5.5C24.0908 5.5 25.5913 6.13278 26.7026 7.32348L26.7203 7.34238L26.7386 7.36066C29.1528 9.77487 29.1528 13.6251 26.7385 16.0393L26.7341 16.0438L15.9992 26.8697L5.26434 16.0438L5.26435 16.0438L5.25988 16.0393C2.84567 13.6251 2.84567 9.77487 5.25988 7.36066L5.35988 7.26066C7.67106 4.94948 11.5073 4.94937 13.8207 7.34253L13.8296 7.35167L13.8386 7.36066L14.9386 8.46066Z" stroke="white" stroke-width="3"/>
</svg>
