<svg width="14" height="13" viewBox="0 0 14 13" fill="none" xmlns="http://www.w3.org/2000/svg">
<path d="M1.22836 2.85197C1.37913 2.48799 1.60011 2.15727 1.87869 1.87869C2.15727 1.60011 2.48799 1.37913 2.85197 1.22836C3.21595 1.0776 3.60606 1 4.00003 1C4.39399 1 4.78411 1.0776 5.14808 1.22836C5.51206 1.37913 5.84278 1.60011 6.12136 1.87869L7.00003 2.75736L7.87869 1.87869C8.44131 1.31608 9.20437 1.00001 10 1.00001C10.7957 1.00001 11.5587 1.31608 12.1214 1.87869C12.684 2.44131 13 3.20437 13 4.00003C13 4.79568 12.684 5.55875 12.1214 6.12136L7.00003 11.2427L1.87869 6.12136C1.60011 5.84278 1.37913 5.51206 1.22836 5.14808C1.0776 4.78411 1 4.39399 1 4.00003C1 3.60606 1.0776 3.21595 1.22836 2.85197Z" stroke="#C4C4C4" stroke-width="2" stroke-linecap="round" stroke-linejoin="round"/>
</svg>
