<svg width="23" height="20" viewBox="0 0 23 20" fill="none" xmlns="http://www.w3.org/2000/svg">
<path d="M2.01775 4.60687C2.26544 4.01891 2.62848 3.48467 3.08614 3.03466C3.54381 2.58465 4.08713 2.22768 4.6851 1.98413C5.28306 1.74059 5.92396 1.61523 6.57119 1.61523C7.21843 1.61523 7.85932 1.74059 8.45729 1.98413C9.05525 2.22768 9.59858 2.58465 10.0562 3.03466L11.4998 4.45405L12.9433 3.03466C13.8676 2.12583 15.1212 1.61525 16.4283 1.61525C17.7355 1.61525 18.9891 2.12583 19.9134 3.03466C20.8377 3.9435 21.3569 5.17614 21.3569 6.46143C21.3569 7.74672 20.8377 8.97936 19.9134 9.8882L11.4998 18.1611L3.08614 9.8882C2.62848 9.43819 2.26544 8.90395 2.01775 8.31599C1.77006 7.72802 1.64258 7.09784 1.64258 6.46143C1.64258 5.82502 1.77006 5.19484 2.01775 4.60687Z" stroke="#134965" stroke-opacity="0.6" stroke-width="2" stroke-linecap="round" stroke-linejoin="round"/>
</svg>
