<svg width="92" height="92" viewBox="0 0 92 92" fill="none" xmlns="http://www.w3.org/2000/svg">
<path d="M17.9688 63.609H3.59375C1.61719 63.609 0 65.2262 0 67.2027V88.4059C0 90.3824 1.61719 91.9996 3.59375 91.9996H17.9688C19.9453 91.9996 21.5625 90.3824 21.5625 88.4059V67.2027C21.5625 65.2262 19.9453 63.609 17.9688 63.609ZM14.375 84.8121H7.1875V70.7965H14.375V84.8121ZM48.282 42.4059H33.907C31.9305 42.4059 30.3133 44.023 30.3133 45.9996V88.4059C30.3133 90.3824 31.9305 91.9996 33.907 91.9996H48.282C50.2586 91.9996 51.8758 90.3824 51.8758 88.4059V45.9996C51.8758 44.023 50.2766 42.4059 48.282 42.4059ZM44.6883 84.8121H37.5008V49.5934H44.6883V84.8121ZM91.3352 24.3293L75.1453 1.50898C73.6719 -0.55743 70.6891 -0.467586 69.2875 1.50898L53.0977 24.3113C51.4086 26.6832 53.1156 29.9894 56.0266 29.9894H61.4352V88.3879C61.4352 90.3644 63.0523 91.9816 65.0289 91.9816H79.4039C81.3805 91.9816 82.9977 90.3644 82.9977 88.3879V30.0074H88.4062C91.3172 30.0074 93.0242 26.7012 91.3352 24.3293ZM79.4039 22.8199C77.4273 22.8199 75.8102 24.4371 75.8102 26.4137V84.8121H68.6227V26.4137C68.6227 24.4371 67.0055 22.8199 65.0289 22.8199H62.9805L72.2164 9.81054L81.4523 22.8199H79.4039Z" fill="#134965"/>
</svg>
