<svg width="92" height="80" viewBox="0 0 92 80" fill="none" xmlns="http://www.w3.org/2000/svg">
<path d="M88.4062 14.4486H71.2102V4.36816C71.2102 2.37363 69.593 0.774414 67.6164 0.774414H24.4016C22.407 0.774414 20.8078 2.3916 20.8078 4.36816V14.4486H3.59375C1.59922 14.4486 0 16.0658 0 18.0424V75.6322C0 77.6268 1.61719 79.226 3.59375 79.226H88.4062C90.4008 79.226 92 77.6088 92 75.6322C92 43.8096 92 19.6596 92 18.0424C92 16.0479 90.3828 14.4486 88.4062 14.4486ZM27.9953 7.96191H63.9867V14.4486H27.9953V7.96191ZM7.20547 21.6361H84.8125V29.8479L46 43.0369L7.20547 29.8658V21.6361ZM7.20547 72.0385V37.4666L44.85 50.2424C45.6047 50.4939 46.4133 50.4939 47.168 50.2424L84.8125 37.4666V72.0385H7.20547Z" fill="#134965"/>
</svg>
