<svg width="50" height="50" viewBox="0 0 50 50" fill="none" xmlns="http://www.w3.org/2000/svg">
<g clip-path="url(#clip0)">
<path d="M36.8812 19.6095C36.7237 20.0342 36.5502 20.452 36.4109 20.8835C35.8561 22.5958 35.6666 24.331 35.8835 26.1369C36.2739 29.4063 37.9497 31.92 40.2854 34.1027C41.5159 35.2533 42.678 36.4771 43.8653 37.6711C44.6598 38.4702 45.0867 39.4611 45.0433 40.5684C44.9452 43.0981 42.8607 44.8241 40.3995 44.4794C39.5022 44.3538 38.7534 43.9451 38.1141 43.3058C36.5365 41.7214 34.9383 40.1552 33.3744 38.5593C32.0456 37.2008 31.1529 35.5844 30.6301 33.7533C30.0913 31.8675 30.0319 29.9657 30.4749 28.0684C31.0022 25.815 32.0981 23.8584 33.7899 22.2579C34.6438 21.4497 35.5228 20.6666 36.3927 19.8743C36.5228 19.7556 36.6666 19.6574 36.8059 19.5479C36.831 19.5707 36.8561 19.5889 36.8812 19.6095Z" fill="#134965"/>
<path d="M44.226 7.78758C43.3812 5.04785 39.9177 4.10037 37.8196 6.0684C36.5433 7.26475 35.3287 8.52503 34.0958 9.76704C33.0182 10.8538 31.9269 11.9154 30.5616 12.6506C29.0319 13.4725 27.4155 13.9657 25.6735 14.0593C24.2146 14.1392 22.7899 14.0045 21.4041 13.541C20.7853 13.3332 20.1826 13.0798 19.5707 12.8447L19.5136 12.9109C20.4063 13.8766 21.2899 14.8538 22.194 15.8081C24.92 18.6894 28.242 19.9931 32.2077 19.5182C34.4908 19.2442 36.5319 18.3652 38.21 16.7944C39.9543 15.1643 41.6506 13.4794 43.2967 11.7511C44.3493 10.6483 44.6894 9.28987 44.226 7.78758ZM25.4999 11.767C28.936 11.5045 31.0936 8.6232 30.9018 5.62092C30.7739 2.27616 27.8378 -0.125664 24.6986 0.0912314C21.3013 0.326391 18.9086 3.24877 19.2488 6.50448C19.6027 9.84238 22.3789 12.0045 25.4999 11.767Z" fill="#134965"/>
<path d="M30.8378 36.1211C29.5502 35.7261 28.363 35.2467 27.1278 35.0207C26.1689 34.8449 25.1484 34.9111 24.1666 34.9978C22.8013 35.1165 21.5 35.5207 20.2579 36.128C18.7945 36.8471 17.5936 37.886 16.4657 39.0412C15.2077 40.3312 13.9269 41.5983 12.6461 42.8677C10.6095 44.886 6.8584 44.1074 6.07758 41.0686C5.71229 39.6485 6.03649 38.3723 7.01137 37.354C8.75567 35.5321 10.5502 33.7512 12.4041 32.0389C13.8538 30.701 15.6369 29.9567 17.5867 29.6165C20.4429 29.1165 23.121 29.5983 25.5913 31.1051C26.2876 31.5298 26.936 32.064 27.5182 32.6371C28.6552 33.7581 29.7283 34.9499 30.8378 36.1211Z" fill="#134965"/>
<path d="M25.283 38.0434C28.5479 37.9886 31.2648 40.669 31.226 44.0297C31.1872 47.3174 28.6073 49.9224 25.2557 49.9247C21.9862 49.9293 19.3333 47.2831 19.3219 43.9589C19.3127 40.7146 22.057 37.9384 25.283 38.0434Z" fill="#134965"/>
<path d="M50.0707 24.8172C50.1255 28.0135 47.5 30.7692 44.121 30.7555C40.831 30.7418 38.1917 28.1117 38.1895 24.8286C38.1872 21.5409 40.8196 18.8857 44.1324 18.8697C47.3995 18.8537 50.1369 21.5615 50.0707 24.8172Z" fill="#134965"/>
<path d="M13.4589 30.1186C13.8539 28.8309 14.3333 27.6437 14.5593 26.4085C14.7351 25.4496 14.6689 24.4291 14.5822 23.4473C14.4634 22.082 14.0593 20.7784 13.452 19.5387C12.7328 18.0752 11.694 16.8743 10.5411 15.7464C9.25111 14.4884 7.98399 13.2076 6.71459 11.9268C4.69632 9.89025 5.47486 6.13911 8.51367 5.35828C9.93376 4.99299 11.21 5.31719 12.2283 6.29207C14.0502 8.03637 15.831 9.83089 17.5433 11.6848C18.8812 13.1345 19.6255 14.9176 19.9657 16.8674C20.4657 19.7236 19.984 22.4017 18.4771 24.872C18.0525 25.5683 17.5182 26.2167 16.9452 26.7989C15.8196 27.9336 14.6301 29.009 13.4589 30.1186Z" fill="#134965"/>
<path d="M12.0251 25.0457C12.0799 28.3105 9.39951 31.0274 6.03878 30.9886C2.75111 30.9498 0.146088 28.3699 0.143805 25.0183C0.139239 21.7489 2.78764 19.0959 6.10956 19.0845C9.35385 19.0754 12.1301 21.8197 12.0251 25.0457Z" fill="#134965"/>
</g>
<defs>
<clipPath id="clip0">
<rect width="50" height="50" fill="white"/>
</clipPath>
</defs>
</svg>
