<svg width="70" height="70" viewBox="0 0 70 70" fill="none" xmlns="http://www.w3.org/2000/svg">
<g clip-path="url(#clip0)">
<path d="M51.6337 27.4535C51.4132 28.048 51.1703 28.6329 50.9753 29.2371C50.1986 31.6343 49.9333 34.0635 50.2369 36.5918C50.7835 41.169 53.1296 44.6882 56.3995 47.7439C58.1223 49.3549 59.7493 51.0681 61.4114 52.7398C62.5237 53.8585 63.1214 55.2457 63.0607 56.796C62.9232 60.3375 60.005 62.754 56.5593 62.2713C55.3031 62.0955 54.2547 61.5234 53.3598 60.6284C51.1511 58.4101 48.9136 56.2174 46.7241 53.9832C44.8639 52.0814 43.6141 49.8183 42.8821 47.2549C42.1278 44.6147 42.0447 41.9521 42.6648 39.296C43.4031 36.1412 44.9374 33.4019 47.3059 31.1613C48.5013 30.0297 49.7319 28.9334 50.9497 27.8243C51.1319 27.6581 51.3333 27.5206 51.5282 27.3672C51.5634 27.3992 51.5986 27.4247 51.6337 27.4535Z" fill="white"/>
<path d="M61.9164 10.9028C60.7337 7.06719 55.8848 5.74071 52.9474 8.49596C51.1606 10.1708 49.4602 11.9352 47.7342 13.674C46.2255 15.1955 44.6976 16.6818 42.7862 17.711C40.6447 18.8617 38.3817 19.5521 35.9428 19.6832C33.9004 19.7951 31.9059 19.6065 29.9657 18.9576C29.0995 18.6667 28.2556 18.3119 27.399 17.9827L27.3191 18.0754C28.5689 19.4275 29.8059 20.7955 31.0716 22.1316C34.888 26.1654 39.5387 27.9905 45.0908 27.3257C48.2871 26.9421 51.1447 25.7115 53.494 23.5124C55.936 21.2302 58.3109 18.8713 60.6154 16.4517C62.089 14.9078 62.5652 13.006 61.9164 10.9028ZM35.6999 16.474C40.5104 16.1065 43.531 12.0727 43.2625 7.86948C43.0835 3.18683 38.973 -0.175734 34.578 0.127919C29.8218 0.457143 26.4721 4.54847 26.9483 9.10646C27.4438 13.7795 31.3305 16.8065 35.6999 16.474Z" fill="white"/>
<path d="M43.173 50.5696C41.3703 50.0166 39.7082 49.3454 37.9789 49.0289C36.6365 48.7828 35.2077 48.8755 33.8333 48.997C31.9219 49.1632 30.0999 49.7289 28.3611 50.5791C26.3123 51.586 24.631 53.0403 23.052 54.6577C21.2908 56.4636 19.4977 58.2376 17.7045 60.0148C14.8534 62.8403 9.60176 61.7504 8.50861 57.496C7.9972 55.5079 8.45108 53.7212 9.81592 52.2956C12.2579 49.7449 14.7703 47.2518 17.3657 44.8545C19.3954 42.9814 21.8917 41.9394 24.6214 41.4632C28.62 40.7632 32.3693 41.4376 35.8278 43.5472C36.8027 44.1417 37.7104 44.8896 38.5255 45.6919C40.1173 47.2613 41.6196 48.9298 43.173 50.5696Z" fill="white"/>
<path d="M35.3963 53.2609C39.9671 53.1842 43.7707 56.9367 43.7164 61.6417C43.662 66.2444 40.0502 69.8915 35.3579 69.8947C30.7808 69.9011 27.0666 66.1965 27.0506 61.5426C27.0378 57.0006 30.8799 53.1138 35.3963 53.2609Z" fill="white"/>
<path d="M70.099 34.7445C70.1757 39.2194 66.4999 43.0774 61.7693 43.0582C57.1634 43.0391 53.4684 39.3569 53.4652 34.7605C53.462 30.1578 57.1474 26.4404 61.7853 26.4181C66.3593 26.3957 70.1917 30.1866 70.099 34.7445Z" fill="white"/>
<path d="M18.8424 42.1665C19.3954 40.3637 20.0666 38.7016 20.383 36.9724C20.6291 35.6299 20.5365 34.2012 20.415 32.8268C20.2488 30.9153 19.683 29.0902 18.8328 27.3546C17.826 25.3057 16.3716 23.6245 14.7575 22.0455C12.9515 20.2843 11.1776 18.4911 9.40039 16.698C6.57481 13.8468 7.66477 8.59524 11.9191 7.50208C13.9072 6.99067 15.694 7.44455 17.1196 8.80939C19.6702 11.2514 22.1634 13.7637 24.5607 16.3592C26.4337 18.3888 27.4757 20.8852 27.952 23.6149C28.652 27.6135 27.9775 31.3628 25.868 34.8213C25.2734 35.7962 24.5255 36.7039 23.7232 37.519C22.1474 39.1076 20.4821 40.6131 18.8424 42.1665Z" fill="white"/>
<path d="M16.8351 35.064C16.9118 39.6347 13.1593 43.4384 8.45427 43.384C3.85153 43.3297 0.204499 39.7178 0.201302 35.0256C0.19491 30.4484 3.90267 26.7343 8.55335 26.7183C13.0954 26.7055 16.9821 30.5475 16.8351 35.064Z" fill="white"/>
</g>
<defs>
<clipPath id="clip0">
<rect width="70" height="70" fill="white"/>
</clipPath>
</defs>
</svg>
