<svg width="92" height="92" viewBox="0 0 92 92" fill="none" xmlns="http://www.w3.org/2000/svg">
<path d="M74.03 20.8438C79.78 20.8438 84.4518 16.1719 84.4518 10.4219C84.4518 4.67188 79.78 0 74.03 0C68.28 0 63.6081 4.67188 63.6081 10.4219C63.6081 16.1719 68.28 20.8438 74.03 20.8438ZM74.03 7.1875C75.8089 7.1875 77.2643 8.64297 77.2643 10.4219C77.2643 12.2008 75.8089 13.6562 74.03 13.6562C72.2511 13.6562 70.7956 12.2008 70.7956 10.4219C70.7956 8.64297 72.2511 7.1875 74.03 7.1875ZM59.655 49.5938H88.405C90.7229 49.5938 92.43 47.4375 91.9089 45.1734L87.5604 26.8094C87.1831 25.1922 85.7276 24.0422 84.0565 24.0422H64.0034C62.3323 24.0422 60.8948 25.1922 60.4995 26.8094L56.1511 45.1734C55.63 47.4195 57.337 49.5938 59.655 49.5938ZM66.8425 31.2297H81.1995L83.8589 42.4062H64.201L66.8425 31.2297ZM17.9675 49.5938C23.7175 49.5938 28.3893 44.9219 28.3893 39.1719C28.3893 33.4219 23.7175 28.75 17.9675 28.75C12.2175 28.75 7.54558 33.4219 7.54558 39.1719C7.54558 44.9219 12.2175 49.5938 17.9675 49.5938ZM17.9675 35.9375C19.7464 35.9375 21.2018 37.393 21.2018 39.1719C21.2018 40.9508 19.7464 42.4062 17.9675 42.4062C16.1886 42.4062 14.7331 40.9508 14.7331 39.1719C14.7331 37.393 16.1886 35.9375 17.9675 35.9375ZM3.59246 78.3438H32.3425C34.6604 78.3438 36.3675 76.1875 35.8464 73.9234L31.4979 55.5594C31.1206 53.9422 29.6651 52.7922 27.994 52.7922H7.9409C6.2698 52.7922 4.8323 53.9422 4.43699 55.5594L0.0885522 73.9234C-0.432542 76.1695 1.27449 78.3438 3.59246 78.3438ZM10.7979 59.9797H25.155L27.8143 71.1562H8.13855L10.7979 59.9797ZM91.9987 60.8781C91.9987 62.8547 90.3815 64.4719 88.405 64.4719H61.1464L34.894 90.9398C34.2112 91.6227 33.2948 92 32.3425 92H3.59246C1.6159 92 -0.00129151 90.3828 -0.00129151 88.4062C-0.00129151 86.4297 1.6159 84.8125 3.59246 84.8125H30.8511L57.1034 58.3445C57.7862 57.6617 58.7026 57.2844 59.655 57.2844H88.405C90.3815 57.2844 91.9987 58.8836 91.9987 60.8781Z" fill="#134965"/>
</svg>
